<svg xmlns="http://www.w3.org/2000/svg" xmlns:xlink="http://www.w3.org/1999/xlink" contentStyleType="text/css" data-diagram-type="CLASS" height="779px" preserveAspectRatio="none" style="width:2028px;height:779px;background:#FFFFFF;" version="1.1" viewBox="0 0 2028 779" width="2028px" zoomAndPan="magnify"><title>Mini CRM Backend - Full ERD</title><defs/><g><g class="title" data-source-line="1"><text fill="#000000" font-family="Verdana" font-size="22" font-weight="bold" lengthAdjust="spacing" textLength="356.6621" x="831.2469" y="35.4209">Mini CRM Backend - Full ERD</text></g><!--class users--><g class="entity" data-entity="users" data-source-line="18" data-uid="ent0002" id="entity_users"><rect fill="#FFFFFF" height="170.3438" rx="2.5" ry="2.5" style="stroke:#000000;stroke-width:1;" width="197.9678" x="680.93" y="58.6094"/><ellipse cx="757.1463" cy="78.7422" fill="#FFFFFF" rx="9" ry="9" style="stroke:#000000;stroke-width:1;"/><path d="M761.2557,84.7422 L753.5369,84.7422 L753.5369,72.3516 L761.2557,72.3516 L761.2557,74.5078 L755.9901,74.5078 L755.9901,77.1797 L760.7557,77.1797 L760.7557,79.3359 L755.9901,79.3359 L755.9901,82.5859 L761.2557,82.5859 L761.2557,84.7422 Z " fill="#000000"/><text fill="#000000" font-family="Verdana" font-size="12" font-style="italic" lengthAdjust="spacing" textLength="42.0352" x="772.6463" y="74.748">&#171;User&#187;</text><text fill="#000000" font-family="Verdana" font-size="14" lengthAdjust="spacing" textLength="37.8301" x="774.7488" y="90.5732">users</text><line style="stroke:#000000;stroke-width:1;" x1="681.93" x2="877.8978" y1="98.875" y2="98.875"/><ellipse cx="691.93" cy="112.5234" fill="#FFFFFF" rx="3" ry="3" style="stroke:#000000;stroke-width:1;"/><text fill="#000000" font-family="Verdana" font-size="14" lengthAdjust="spacing" textLength="99.3057" x="698.93" y="115.8701">id : bigint [PK]</text><text fill="#000000" font-family="Verdana" font-size="14" lengthAdjust="spacing" textLength="93.5088" x="698.93" y="132.167">name : string</text><text fill="#000000" font-family="Verdana" font-size="14" lengthAdjust="spacing" textLength="92.415" x="698.93" y="148.4639">email : string</text><text fill="#000000" font-family="Verdana" font-size="14" lengthAdjust="spacing" textLength="120.5176" x="698.93" y="164.7607">password : string</text><text fill="#000000" font-family="Verdana" font-size="14" lengthAdjust="spacing" textLength="173.9678" x="698.93" y="181.0576">remember_token : string</text><text fill="#000000" font-family="Verdana" font-size="14" lengthAdjust="spacing" textLength="163.8369" x="698.93" y="197.3545">created_at : timestamp</text><text fill="#000000" font-family="Verdana" font-size="14" lengthAdjust="spacing" textLength="168.417" x="698.93" y="213.6514">updated_at : timestamp</text><line style="stroke:#000000;stroke-width:1;" x1="681.93" x2="877.8978" y1="220.9531" y2="220.9531"/></g><!--class clients--><g class="entity" data-entity="clients" data-source-line="28" data-uid="ent0003" id="entity_clients"><rect fill="#FFFFFF" height="202.9375" rx="2.5" ry="2.5" style="stroke:#000000;stroke-width:1;" width="335.1143" x="612.36" y="305.9494"/><ellipse cx="753.2941" cy="326.0822" fill="#FFFFFF" rx="9" ry="9" style="stroke:#000000;stroke-width:1;"/><path d="M757.4035,332.0822 L749.6847,332.0822 L749.6847,319.6916 L757.4035,319.6916 L757.4035,321.8478 L752.1378,321.8478 L752.1378,324.5197 L756.9035,324.5197 L756.9035,326.6759 L752.1378,326.6759 L752.1378,329.9259 L757.4035,329.9259 L757.4035,332.0822 Z " fill="#000000"/><text fill="#000000" font-family="Verdana" font-size="12" font-style="italic" lengthAdjust="spacing" textLength="49.4238" x="768.9552" y="322.088">&#171;Client&#187;</text><text fill="#000000" font-family="Verdana" font-size="14" lengthAdjust="spacing" textLength="45.7461" x="770.7941" y="337.9132">clients</text><line style="stroke:#000000;stroke-width:1;" x1="613.36" x2="946.4743" y1="346.215" y2="346.215"/><ellipse cx="623.36" cy="359.8634" fill="#FFFFFF" rx="3" ry="3" style="stroke:#000000;stroke-width:1;"/><text fill="#000000" font-family="Verdana" font-size="14" lengthAdjust="spacing" textLength="99.3057" x="630.36" y="363.2101">id : bigint [PK]</text><text fill="#000000" font-family="Verdana" font-size="14" lengthAdjust="spacing" textLength="93.5088" x="630.36" y="379.507">name : string</text><text fill="#000000" font-family="Verdana" font-size="14" lengthAdjust="spacing" textLength="92.415" x="630.36" y="395.8039">email : string</text><text fill="#000000" font-family="Verdana" font-size="14" lengthAdjust="spacing" textLength="97.6172" x="630.36" y="412.1007">phone : string</text><text fill="#000000" font-family="Verdana" font-size="14" lengthAdjust="spacing" textLength="245.1982" x="630.36" y="428.3976">assigned_to : bigint [FK &#8594; users.id]</text><text fill="#000000" font-family="Verdana" font-size="14" lengthAdjust="spacing" textLength="250.7217" x="630.36" y="444.6945">last_communication_at : timestamp</text><text fill="#000000" font-family="Verdana" font-size="14" lengthAdjust="spacing" textLength="163.8369" x="630.36" y="460.9914">created_at : timestamp</text><text fill="#000000" font-family="Verdana" font-size="14" lengthAdjust="spacing" textLength="168.417" x="630.36" y="477.2882">updated_at : timestamp</text><line style="stroke:#000000;stroke-width:1;" x1="613.36" x2="946.4743" y1="484.59" y2="484.59"/><text fill="#000000" font-family="Verdana" font-size="14" lengthAdjust="spacing" textLength="323.1143" x="618.36" y="501.5851">status : enum('New','Hot','Inactive','Prospect')</text></g><!--class communications--><g class="entity" data-entity="communications" data-source-line="40" data-uid="ent0004" id="entity_communications"><rect fill="#FFFFFF" height="186.6406" rx="2.5" ry="2.5" style="stroke:#000000;stroke-width:1;" width="263.6338" x="504.1" y="585.8894"/><ellipse cx="574.3861" cy="606.0222" fill="#FFFFFF" rx="9" ry="9" style="stroke:#000000;stroke-width:1;"/><path d="M578.4955,612.0222 L570.7768,612.0222 L570.7768,599.6316 L578.4955,599.6316 L578.4955,601.7878 L573.2299,601.7878 L573.2299,604.4597 L577.9955,604.4597 L577.9955,606.6159 L573.2299,606.6159 L573.2299,609.8659 L578.4955,609.8659 L578.4955,612.0222 Z " fill="#000000"/><text fill="#000000" font-family="Verdana" font-size="12" font-style="italic" lengthAdjust="spacing" textLength="109.2656" x="595.0341" y="602.028">&#171;Communication&#187;</text><text fill="#000000" font-family="Verdana" font-size="14" lengthAdjust="spacing" textLength="115.5615" x="591.8861" y="617.8532">communications</text><line style="stroke:#000000;stroke-width:1;" x1="505.1" x2="766.7338" y1="626.155" y2="626.155"/><ellipse cx="515.1" cy="639.8034" fill="#FFFFFF" rx="3" ry="3" style="stroke:#000000;stroke-width:1;"/><text fill="#000000" font-family="Verdana" font-size="14" lengthAdjust="spacing" textLength="99.3057" x="522.1" y="643.1501">id : bigint [PK]</text><text fill="#000000" font-family="Verdana" font-size="14" lengthAdjust="spacing" textLength="227.9717" x="522.1" y="659.447">client_id : bigint [FK &#8594; clients.id]</text><text fill="#000000" font-family="Verdana" font-size="14" lengthAdjust="spacing" textLength="108.3838" x="522.1" y="675.7439">date : datetime</text><text fill="#000000" font-family="Verdana" font-size="14" lengthAdjust="spacing" textLength="80.3291" x="522.1" y="692.0407">notes : text</text><text fill="#000000" font-family="Verdana" font-size="14" lengthAdjust="spacing" textLength="239.6338" x="522.1" y="708.3376">created_by : bigint [FK &#8594; users.id]</text><text fill="#000000" font-family="Verdana" font-size="14" lengthAdjust="spacing" textLength="163.8369" x="522.1" y="724.6345">created_at : timestamp</text><text fill="#000000" font-family="Verdana" font-size="14" lengthAdjust="spacing" textLength="168.417" x="522.1" y="740.9314">updated_at : timestamp</text><line style="stroke:#000000;stroke-width:1;" x1="505.1" x2="766.7338" y1="748.2331" y2="748.2331"/><text fill="#000000" font-family="Verdana" font-size="14" lengthAdjust="spacing" textLength="248.4727" x="510.1" y="765.2282">type : enum('call','email','meeting')</text></g><!--class followups--><g class="entity" data-entity="followups" data-source-line="51" data-uid="ent0005" id="entity_followups"><rect fill="#FFFFFF" height="186.6406" rx="2.5" ry="2.5" style="stroke:#000000;stroke-width:1;" width="251.9717" x="847.93" y="585.8894"/><ellipse cx="933.4945" cy="606.0222" fill="#FFFFFF" rx="9" ry="9" style="stroke:#000000;stroke-width:1;"/><path d="M937.6038,612.0222 L929.8851,612.0222 L929.8851,599.6316 L937.6038,599.6316 L937.6038,601.7878 L932.3382,601.7878 L932.3382,604.4597 L937.1038,604.4597 L937.1038,606.6159 L932.3382,606.6159 L932.3382,609.8659 L937.6038,609.8659 L937.6038,612.0222 Z " fill="#000000"/><text fill="#000000" font-family="Verdana" font-size="12" font-style="italic" lengthAdjust="spacing" textLength="69.1523" x="953.0897" y="602.028">&#171;FollowUp&#187;</text><text fill="#000000" font-family="Verdana" font-size="14" lengthAdjust="spacing" textLength="73.3428" x="950.9945" y="617.8532">follow_ups</text><line style="stroke:#000000;stroke-width:1;" x1="848.93" x2="1098.9017" y1="626.155" y2="626.155"/><ellipse cx="858.93" cy="639.8034" fill="#FFFFFF" rx="3" ry="3" style="stroke:#000000;stroke-width:1;"/><text fill="#000000" font-family="Verdana" font-size="14" lengthAdjust="spacing" textLength="99.3057" x="865.93" y="643.1501">id : bigint [PK]</text><text fill="#000000" font-family="Verdana" font-size="14" lengthAdjust="spacing" textLength="227.9717" x="865.93" y="659.447">client_id : bigint [FK &#8594; clients.id]</text><text fill="#000000" font-family="Verdana" font-size="14" lengthAdjust="spacing" textLength="212.1396" x="865.93" y="675.7439">user_id : bigint [FK &#8594; users.id]</text><text fill="#000000" font-family="Verdana" font-size="14" lengthAdjust="spacing" textLength="124.2568" x="865.93" y="692.0407">due_at : datetime</text><text fill="#000000" font-family="Verdana" font-size="14" lengthAdjust="spacing" textLength="80.3291" x="865.93" y="708.3376">notes : text</text><text fill="#000000" font-family="Verdana" font-size="14" lengthAdjust="spacing" textLength="104.5283" x="865.93" y="724.6345">done : boolean</text><text fill="#000000" font-family="Verdana" font-size="14" lengthAdjust="spacing" textLength="163.8369" x="865.93" y="740.9314">created_at : timestamp</text><text fill="#000000" font-family="Verdana" font-size="14" lengthAdjust="spacing" textLength="168.417" x="865.93" y="757.2282">updated_at : timestamp</text><line style="stroke:#000000;stroke-width:1;" x1="848.93" x2="1098.9017" y1="764.53" y2="764.53"/></g><!--class roles--><g class="entity" data-entity="roles" data-source-line="62" data-uid="ent0006" id="entity_roles"><rect fill="#FFFFFF" height="137.75" rx="2.5" ry="2.5" style="stroke:#000000;stroke-width:1;" width="192.417" x="1614.71" y="74.9094"/><ellipse cx="1688.6285" cy="95.0422" fill="#FFFFFF" rx="9" ry="9" style="stroke:#000000;stroke-width:1;"/><path d="M1692.7378,101.0422 L1685.0191,101.0422 L1685.0191,88.6516 L1692.7378,88.6516 L1692.7378,90.8078 L1687.4722,90.8078 L1687.4722,93.4797 L1692.2378,93.4797 L1692.2378,95.6359 L1687.4722,95.6359 L1687.4722,98.8859 L1692.7378,98.8859 L1692.7378,101.0422 Z " fill="#000000"/><text fill="#000000" font-family="Verdana" font-size="12" font-style="italic" lengthAdjust="spacing" textLength="41.0801" x="1704.1285" y="91.048">&#171;Role&#187;</text><text fill="#000000" font-family="Verdana" font-size="14" lengthAdjust="spacing" textLength="34.1182" x="1707.6094" y="106.8732">roles</text><line style="stroke:#000000;stroke-width:1;" x1="1615.71" x2="1806.127" y1="115.175" y2="115.175"/><ellipse cx="1625.71" cy="128.8234" fill="#FFFFFF" rx="3" ry="3" style="stroke:#000000;stroke-width:1;"/><text fill="#000000" font-family="Verdana" font-size="14" lengthAdjust="spacing" textLength="99.3057" x="1632.71" y="132.1701">id : bigint [PK]</text><text fill="#000000" font-family="Verdana" font-size="14" lengthAdjust="spacing" textLength="93.5088" x="1632.71" y="148.467">name : string</text><text fill="#000000" font-family="Verdana" font-size="14" lengthAdjust="spacing" textLength="141.4902" x="1632.71" y="164.7639">guard_name : string</text><text fill="#000000" font-family="Verdana" font-size="14" lengthAdjust="spacing" textLength="163.8369" x="1632.71" y="181.0607">created_at : timestamp</text><text fill="#000000" font-family="Verdana" font-size="14" lengthAdjust="spacing" textLength="168.417" x="1632.71" y="197.3576">updated_at : timestamp</text><line style="stroke:#000000;stroke-width:1;" x1="1615.71" x2="1806.127" y1="204.6594" y2="204.6594"/></g><!--class permissions--><g class="entity" data-entity="permissions" data-source-line="70" data-uid="ent0007" id="entity_permissions"><rect fill="#FFFFFF" height="137.75" rx="2.5" ry="2.5" style="stroke:#000000;stroke-width:1;" width="192.417" x="1319.71" y="74.9094"/><ellipse cx="1370.1719" cy="95.0422" fill="#FFFFFF" rx="9" ry="9" style="stroke:#000000;stroke-width:1;"/><path d="M1374.2813,101.0422 L1366.5625,101.0422 L1366.5625,88.6516 L1374.2813,88.6516 L1374.2813,90.8078 L1369.0157,90.8078 L1369.0157,93.4797 L1373.7813,93.4797 L1373.7813,95.6359 L1369.0157,95.6359 L1369.0157,98.8859 L1374.2813,98.8859 L1374.2813,101.0422 Z " fill="#000000"/><text fill="#000000" font-family="Verdana" font-size="12" font-style="italic" lengthAdjust="spacing" textLength="80.0449" x="1389.646" y="91.048">&#171;Permission&#187;</text><text fill="#000000" font-family="Verdana" font-size="14" lengthAdjust="spacing" textLength="83.9932" x="1387.6719" y="106.8732">permissions</text><line style="stroke:#000000;stroke-width:1;" x1="1320.71" x2="1511.127" y1="115.175" y2="115.175"/><ellipse cx="1330.71" cy="128.8234" fill="#FFFFFF" rx="3" ry="3" style="stroke:#000000;stroke-width:1;"/><text fill="#000000" font-family="Verdana" font-size="14" lengthAdjust="spacing" textLength="99.3057" x="1337.71" y="132.1701">id : bigint [PK]</text><text fill="#000000" font-family="Verdana" font-size="14" lengthAdjust="spacing" textLength="93.5088" x="1337.71" y="148.467">name : string</text><text fill="#000000" font-family="Verdana" font-size="14" lengthAdjust="spacing" textLength="141.4902" x="1337.71" y="164.7639">guard_name : string</text><text fill="#000000" font-family="Verdana" font-size="14" lengthAdjust="spacing" textLength="163.8369" x="1337.71" y="181.0607">created_at : timestamp</text><text fill="#000000" font-family="Verdana" font-size="14" lengthAdjust="spacing" textLength="168.417" x="1337.71" y="197.3576">updated_at : timestamp</text><line style="stroke:#000000;stroke-width:1;" x1="1320.71" x2="1511.127" y1="204.6594" y2="204.6594"/></g><!--class modelHasRoles--><g class="entity" data-entity="modelHasRoles" data-source-line="78" data-uid="ent0008" id="entity_modelHasRoles"><rect fill="#FFFFFF" height="105.1563" rx="2.5" ry="2.5" style="stroke:#000000;stroke-width:1;" width="216.7158" x="1452.56" y="354.8394"/><ellipse cx="1498.9394" cy="374.9722" fill="#FFFFFF" rx="9" ry="9" style="stroke:#000000;stroke-width:1;"/><path d="M1503.0488,380.9722 L1495.33,380.9722 L1495.33,368.5816 L1503.0488,368.5816 L1503.0488,370.7378 L1497.7831,370.7378 L1497.7831,373.4097 L1502.5488,373.4097 L1502.5488,375.5659 L1497.7831,375.5659 L1497.7831,378.8159 L1503.0488,378.8159 L1503.0488,380.9722 Z " fill="#000000"/><text fill="#000000" font-family="Verdana" font-size="12" font-style="italic" lengthAdjust="spacing" textLength="41.0801" x="1554.1279" y="370.978">&#171;Role&#187;</text><text fill="#000000" font-family="Verdana" font-size="14" lengthAdjust="spacing" textLength="116.457" x="1516.4394" y="386.8032">model_has_roles</text><line style="stroke:#000000;stroke-width:1;" x1="1453.56" x2="1668.2758" y1="395.105" y2="395.105"/><text fill="#000000" font-family="Verdana" font-size="14" lengthAdjust="spacing" textLength="116.9014" x="1458.56" y="412.1001">model_id : bigint</text><text fill="#000000" font-family="Verdana" font-size="14" lengthAdjust="spacing" textLength="204.7158" x="1458.56" y="428.397">role_id : bigint [FK &#8594; roles.id]</text><text fill="#000000" font-family="Verdana" font-size="14" lengthAdjust="spacing" textLength="135.6729" x="1458.56" y="444.6939">model_type : string</text><line style="stroke:#000000;stroke-width:1;" x1="1453.56" x2="1668.2758" y1="451.9956" y2="451.9956"/></g><!--class modelHasPermissions--><g class="entity" data-entity="modelHasPermissions" data-source-line="84" data-uid="ent0009" id="entity_modelHasPermissions"><rect fill="#FFFFFF" height="105.1563" rx="2.5" ry="2.5" style="stroke:#000000;stroke-width:1;" width="316.4658" x="1100.69" y="354.8394"/><ellipse cx="1172.0069" cy="374.9722" fill="#FFFFFF" rx="9" ry="9" style="stroke:#000000;stroke-width:1;"/><path d="M1176.1163,380.9722 L1168.3975,380.9722 L1168.3975,368.5816 L1176.1163,368.5816 L1176.1163,370.7378 L1170.8506,370.7378 L1170.8506,373.4097 L1175.6163,373.4097 L1175.6163,375.5659 L1170.8506,375.5659 L1170.8506,378.8159 L1176.1163,378.8159 L1176.1163,380.9722 Z " fill="#000000"/><text fill="#000000" font-family="Verdana" font-size="12" font-style="italic" lengthAdjust="spacing" textLength="80.0449" x="1232.6504" y="370.978">&#171;Permission&#187;</text><text fill="#000000" font-family="Verdana" font-size="14" lengthAdjust="spacing" textLength="166.332" x="1189.5069" y="386.8032">model_has_permissions</text><line style="stroke:#000000;stroke-width:1;" x1="1101.69" x2="1416.1558" y1="395.105" y2="395.105"/><text fill="#000000" font-family="Verdana" font-size="14" lengthAdjust="spacing" textLength="116.9014" x="1106.69" y="412.1001">model_id : bigint</text><text fill="#000000" font-family="Verdana" font-size="14" lengthAdjust="spacing" textLength="304.4658" x="1106.69" y="428.397">permission_id : bigint [FK &#8594; permissions.id]</text><text fill="#000000" font-family="Verdana" font-size="14" lengthAdjust="spacing" textLength="135.6729" x="1106.69" y="444.6939">model_type : string</text><line style="stroke:#000000;stroke-width:1;" x1="1101.69" x2="1416.1558" y1="451.9956" y2="451.9956"/></g><!--class roleHasPermissions--><g class="entity" data-entity="roleHasPermissions" data-source-line="90" data-uid="ent0010" id="entity_roleHasPermissions"><rect fill="#FFFFFF" height="88.8594" rx="2.5" ry="2.5" style="stroke:#000000;stroke-width:1;" width="316.4658" x="1704.69" y="362.9894"/><ellipse cx="1784.3912" cy="383.1222" fill="#FFFFFF" rx="9" ry="9" style="stroke:#000000;stroke-width:1;"/><path d="M1788.5005,389.1222 L1780.7818,389.1222 L1780.7818,376.7316 L1788.5005,376.7316 L1788.5005,378.8878 L1783.2349,378.8878 L1783.2349,381.5597 L1788.0005,381.5597 L1788.0005,383.7159 L1783.2349,383.7159 L1783.2349,386.9659 L1788.5005,386.9659 L1788.5005,389.1222 Z " fill="#000000"/><text fill="#000000" font-family="Verdana" font-size="12" font-style="italic" lengthAdjust="spacing" textLength="80.0449" x="1836.6504" y="379.128">&#171;Permission&#187;</text><text fill="#000000" font-family="Verdana" font-size="14" lengthAdjust="spacing" textLength="149.5635" x="1801.8912" y="394.9532">role_has_permissions</text><line style="stroke:#000000;stroke-width:1;" x1="1705.69" x2="2020.1558" y1="403.255" y2="403.255"/><text fill="#000000" font-family="Verdana" font-size="14" lengthAdjust="spacing" textLength="304.4658" x="1710.69" y="420.2501">permission_id : bigint [FK &#8594; permissions.id]</text><text fill="#000000" font-family="Verdana" font-size="14" lengthAdjust="spacing" textLength="204.7158" x="1710.69" y="436.547">role_id : bigint [FK &#8594; roles.id]</text><line style="stroke:#000000;stroke-width:1;" x1="1705.69" x2="2020.1558" y1="443.8487" y2="443.8487"/></g><!--class notifications--><g class="entity" data-entity="notifications" data-source-line="95" data-uid="ent0011" id="entity_notifications"><rect fill="#FFFFFF" height="170.3438" rx="2.5" ry="2.5" style="stroke:#000000;stroke-width:1;" width="187.8369" x="12" y="322.2494"/><ellipse cx="59.1567" cy="342.3822" fill="#FFFFFF" rx="9" ry="9" style="stroke:#000000;stroke-width:1;"/><path d="M63.2661,348.3822 L55.5474,348.3822 L55.5474,335.9916 L63.2661,335.9916 L63.2661,338.1478 L58.0005,338.1478 L58.0005,340.8197 L62.7661,340.8197 L62.7661,342.9759 L58.0005,342.9759 L58.0005,346.2259 L63.2661,346.2259 L63.2661,348.3822 Z " fill="#000000"/><text fill="#000000" font-family="Verdana" font-size="12" font-style="italic" lengthAdjust="spacing" textLength="83.5371" x="77.8999" y="338.388">&#171;Notification&#187;</text><text fill="#000000" font-family="Verdana" font-size="14" lengthAdjust="spacing" textLength="86.0234" x="76.6567" y="354.2132">notifications</text><line style="stroke:#000000;stroke-width:1;" x1="13" x2="198.8369" y1="362.515" y2="362.515"/><ellipse cx="23" cy="376.1634" fill="#FFFFFF" rx="3" ry="3" style="stroke:#000000;stroke-width:1;"/><text fill="#000000" font-family="Verdana" font-size="14" lengthAdjust="spacing" textLength="99.3057" x="30" y="379.5101">id : bigint [PK]</text><text fill="#000000" font-family="Verdana" font-size="14" lengthAdjust="spacing" textLength="85.0801" x="30" y="395.807">type : string</text><text fill="#000000" font-family="Verdana" font-size="14" lengthAdjust="spacing" textLength="138.9131" x="30" y="412.1039">notifiable_id : bigint</text><text fill="#000000" font-family="Verdana" font-size="14" lengthAdjust="spacing" textLength="157.6846" x="30" y="428.4007">notifiable_type : string</text><text fill="#000000" font-family="Verdana" font-size="14" lengthAdjust="spacing" textLength="73.7734" x="30" y="444.6976">data : json</text><text fill="#000000" font-family="Verdana" font-size="14" lengthAdjust="spacing" textLength="142.0371" x="30" y="460.9945">read_at : timestamp</text><text fill="#000000" font-family="Verdana" font-size="14" lengthAdjust="spacing" textLength="163.8369" x="30" y="477.2914">created_at : timestamp</text><line style="stroke:#000000;stroke-width:1;" x1="13" x2="198.8369" y1="484.5931" y2="484.5931"/></g><!--class jobs--><g class="entity" data-entity="jobs" data-source-line="105" data-uid="ent0012" id="entity_jobs"><rect fill="#FFFFFF" height="170.3438" rx="2.5" ry="2.5" style="stroke:#000000;stroke-width:1;" width="197.3936" x="235.22" y="322.2494"/><ellipse cx="315.576" cy="342.3822" fill="#FFFFFF" rx="9" ry="9" style="stroke:#000000;stroke-width:1;"/><path d="M319.6853,348.3822 L311.9666,348.3822 L311.9666,335.9916 L319.6853,335.9916 L319.6853,338.1478 L314.4197,338.1478 L314.4197,340.8197 L319.1853,340.8197 L319.1853,342.9759 L314.4197,342.9759 L314.4197,346.2259 L319.6853,346.2259 L319.6853,348.3822 Z " fill="#000000"/><text fill="#000000" font-family="Verdana" font-size="12" font-style="italic" lengthAdjust="spacing" textLength="33.1816" x="331.076" y="338.388">&#171;Job&#187;</text><text fill="#000000" font-family="Verdana" font-size="14" lengthAdjust="spacing" textLength="28.6357" x="333.3489" y="354.2132">jobs</text><line style="stroke:#000000;stroke-width:1;" x1="236.22" x2="431.6136" y1="362.515" y2="362.515"/><ellipse cx="246.22" cy="376.1634" fill="#FFFFFF" rx="3" ry="3" style="stroke:#000000;stroke-width:1;"/><text fill="#000000" font-family="Verdana" font-size="14" lengthAdjust="spacing" textLength="99.3057" x="253.22" y="379.5101">id : bigint [PK]</text><text fill="#000000" font-family="Verdana" font-size="14" lengthAdjust="spacing" textLength="97.665" x="253.22" y="395.807">queue : string</text><text fill="#000000" font-family="Verdana" font-size="14" lengthAdjust="spacing" textLength="127.3809" x="253.22" y="412.1039">payload : longtext</text><text fill="#000000" font-family="Verdana" font-size="14" lengthAdjust="spacing" textLength="127.2168" x="253.22" y="428.4007">attempts : integer</text><text fill="#000000" font-family="Verdana" font-size="14" lengthAdjust="spacing" textLength="172.0195" x="253.22" y="444.6976">reserved_at : timestamp</text><text fill="#000000" font-family="Verdana" font-size="14" lengthAdjust="spacing" textLength="173.3936" x="253.22" y="460.9945">available_at : timestamp</text><text fill="#000000" font-family="Verdana" font-size="14" lengthAdjust="spacing" textLength="163.8369" x="253.22" y="477.2914">created_at : timestamp</text><line style="stroke:#000000;stroke-width:1;" x1="236.22" x2="431.6136" y1="484.5931" y2="484.5931"/></g><!--link users to clients--><g class="link" data-entity-1="users" data-entity-2="clients" data-source-line="117" data-uid="lnk13" id="link_users_clients"><path codeLine="117" d="M779.92,237.3694 C779.92,261.6994 779.92,262.4894 779.92,287.6994" fill="none" id="users-clients" style="stroke:#000000;stroke-width:1;"/><line style="stroke:#000000;stroke-width:1;" x1="775.92" x2="783.92" y1="233.3694" y2="233.3694"/><line style="stroke:#000000;stroke-width:1;" x1="775.92" x2="783.92" y1="236.3694" y2="236.3694"/><line style="stroke:#000000;stroke-width:1;" x1="779.92" x2="779.92" y1="237.3694" y2="229.3694"/><line style="stroke:#000000;stroke-width:1;" x1="779.92" x2="785.92" y1="297.6994" y2="305.6994"/><line style="stroke:#000000;stroke-width:1;" x1="779.92" x2="773.92" y1="297.6994" y2="305.6994"/><line style="stroke:#000000;stroke-width:1;" x1="779.92" x2="779.92" y1="297.6994" y2="305.6994"/><ellipse cx="779.92" cy="291.6994" fill="none" rx="4" ry="4" style="stroke:#000000;stroke-width:1;"/><text fill="#000000" font-family="Verdana" font-size="13" lengthAdjust="spacing" textLength="77.416" x="780.92" y="272.0163">assigned_to</text></g><!--link clients to communications--><g class="link" data-entity-1="clients" data-entity-2="communications" data-source-line="118" data-uid="lnk14" id="link_clients_communications"><path codeLine="118" d="M722.3238,516.3174 C708.9838,541.3174 706.9933,545.0385 693.8733,569.6285" fill="none" id="clients-communications" style="stroke:#000000;stroke-width:1;"/><line style="stroke:#000000;stroke-width:1;" x1="720.6779" x2="727.7359" y1="510.9053" y2="514.6715"/><line style="stroke:#000000;stroke-width:1;" x1="719.2656" x2="726.3236" y1="513.5521" y2="517.3182"/><line style="stroke:#000000;stroke-width:1;" x1="722.3238" x2="726.09" y1="516.3174" y2="509.2594"/><line style="stroke:#000000;stroke-width:1;" x1="689.1659" x2="690.6936" y1="578.4512" y2="588.3338"/><line style="stroke:#000000;stroke-width:1;" x1="689.1659" x2="680.1064" y1="578.4512" y2="582.685"/><line style="stroke:#000000;stroke-width:1;" x1="689.1659" x2="685.4" y1="578.4512" y2="585.5094"/><ellipse cx="691.9903" cy="573.1575" fill="none" rx="4" ry="4" style="stroke:#000000;stroke-width:1;"/><text fill="#000000" font-family="Verdana" font-size="13" lengthAdjust="spacing" textLength="63.6733" x="708.92" y="551.9563">has many</text></g><!--link users to communications--><g class="link" data-entity-1="users" data-entity-2="communications" data-source-line="119" data-uid="lnk15" id="link_users_communications"><path codeLine="119" d="M673.382,181.6388 C615.592,206.9488 554.93,244.7194 520.92,305.9494 C477.12,384.7994 494.41,422.6794 520.92,508.8894 C529.17,535.7194 533.388,547.0812 548.958,570.7512" fill="none" id="users-communications" style="stroke:#000000;stroke-width:1;"/><line style="stroke:#000000;stroke-width:1;" x1="675.4413" x2="678.6507" y1="176.3701" y2="183.6981"/><line style="stroke:#000000;stroke-width:1;" x1="672.6933" x2="675.9027" y1="177.5736" y2="184.9016"/><line style="stroke:#000000;stroke-width:1;" x1="673.382" x2="680.71" y1="181.6388" y2="178.4294"/><line style="stroke:#000000;stroke-width:1;" x1="554.4535" x2="563.8627" y1="579.1057" y2="582.492"/><line style="stroke:#000000;stroke-width:1;" x1="554.4535" x2="553.8373" y1="579.1057" y2="589.0867"/><line style="stroke:#000000;stroke-width:1;" x1="554.4535" x2="558.85" y1="579.1057" y2="585.7894"/><ellipse cx="551.1562" cy="574.093" fill="none" rx="4" ry="4" style="stroke:#000000;stroke-width:1;"/><text fill="#000000" font-family="Verdana" font-size="13" lengthAdjust="spacing" textLength="72.249" x="521.92" y="411.9863">created_by</text></g><!--link clients to followups--><g class="link" data-entity-1="clients" data-entity-2="followups" data-source-line="120" data-uid="lnk16" id="link_clients_followups"><path codeLine="120" d="M857.101,515.7541 C875.081,540.7541 879.0722,546.3048 896.7522,570.8948" fill="none" id="clients-followups" style="stroke:#000000;stroke-width:1;"/><line style="stroke:#000000;stroke-width:1;" x1="851.5181" x2="858.0129" y1="514.8423" y2="510.1712"/><line style="stroke:#000000;stroke-width:1;" x1="853.2698" x2="859.7645" y1="517.2778" y2="512.6068"/><line style="stroke:#000000;stroke-width:1;" x1="857.101" x2="852.43" y1="515.7541" y2="509.2594"/><line style="stroke:#000000;stroke-width:1;" x1="902.5899" x2="912.1315" y1="579.014" y2="582.0068"/><line style="stroke:#000000;stroke-width:1;" x1="902.5899" x2="902.3885" y1="579.014" y2="589.012"/><line style="stroke:#000000;stroke-width:1;" x1="902.5899" x2="907.26" y1="579.014" y2="585.5094"/><ellipse cx="899.0873" cy="574.1425" fill="none" rx="4" ry="4" style="stroke:#000000;stroke-width:1;"/><text fill="#000000" font-family="Verdana" font-size="13" lengthAdjust="spacing" textLength="63.6733" x="882.92" y="551.9563">has many</text></g><!--link users to followups--><g class="link" data-entity-1="users" data-entity-2="followups" data-source-line="121" data-uid="lnk17" id="link_users_followups"><path codeLine="121" d="M885.4745,211.0569 C918.9645,237.3269 946.26,266.2394 964.92,305.9494 C1006.28,394.0094 1004.5003,489.3475 994.0503,567.6775" fill="none" id="users-followups" style="stroke:#000000;stroke-width:1;"/><line style="stroke:#000000;stroke-width:1;" x1="879.8585" x2="884.796" y1="211.7354" y2="205.4409"/><line style="stroke:#000000;stroke-width:1;" x1="882.219" x2="887.1565" y1="213.587" y2="207.2924"/><line style="stroke:#000000;stroke-width:1;" x1="885.4745" x2="879.18" y1="211.0569" y2="206.1194"/><line style="stroke:#000000;stroke-width:1;" x1="992.7279" x2="997.6173" y1="577.5896" y2="586.3128"/><line style="stroke:#000000;stroke-width:1;" x1="992.7279" x2="985.7227" y1="577.5896" y2="584.7259"/><line style="stroke:#000000;stroke-width:1;" x1="992.7279" x2="991.67" y1="577.5896" y2="585.5194"/><ellipse cx="993.5213" cy="571.6423" fill="none" rx="4" ry="4" style="stroke:#000000;stroke-width:1;"/><text fill="#000000" font-family="Verdana" font-size="13" lengthAdjust="spacing" textLength="46.7188" x="998.92" y="411.9863">user_id</text></g><!--link users to modelHasRoles--><g class="link" data-entity-1="users" data-entity-2="modelHasRoles" data-source-line="123" data-uid="lnk18" id="link_users_modelHasRoles"><path codeLine="123" d="M886.7471,176.1948 C985.1171,204.5448 1132.76,245.4394 1268.92,275.9494 C1342.08,292.3394 1366.65,274.9694 1434.92,305.9494 C1461.16,317.8594 1472.9654,324.7913 1494.1054,342.7613" fill="none" id="users-modelHasRoles" style="stroke:#000000;stroke-width:1;"/><line style="stroke:#000000;stroke-width:1;" x1="881.7959" x2="884.0113" y1="178.9306" y2="171.2435"/><line style="stroke:#000000;stroke-width:1;" x1="884.6785" x2="886.8939" y1="179.7614" y2="172.0743"/><line style="stroke:#000000;stroke-width:1;" x1="886.7471" x2="879.06" y1="176.1948" y2="173.9794"/><line style="stroke:#000000;stroke-width:1;" x1="1501.7246" x2="1511.706" y1="349.238" y2="349.8478"/><line style="stroke:#000000;stroke-width:1;" x1="1501.7246" x2="1503.934" y1="349.238" y2="358.9909"/><line style="stroke:#000000;stroke-width:1;" x1="1501.7246" x2="1507.82" y1="349.238" y2="354.4194"/><ellipse cx="1497.1531" cy="345.352" fill="none" rx="4" ry="4" style="stroke:#000000;stroke-width:1;"/><text fill="#000000" font-family="Verdana" font-size="13" lengthAdjust="spacing" textLength="58.8428" x="1269.92" y="272.0163">model_id</text></g><!--link roles to modelHasRoles--><g class="link" data-entity-1="roles" data-entity-2="modelHasRoles" data-source-line="124" data-uid="lnk19" id="link_roles_modelHasRoles"><path codeLine="124" d="M1667.9206,219.7794 C1642.5706,263.9894 1622.9737,298.1843 1599.6937,338.7843" fill="none" id="roles-modelHasRoles" style="stroke:#000000;stroke-width:1;"/><line style="stroke:#000000;stroke-width:1;" x1="1666.4403" x2="1673.3803" y1="214.3197" y2="218.2991"/><line style="stroke:#000000;stroke-width:1;" x1="1664.948" x2="1671.888" y1="216.9222" y2="220.9016"/><line style="stroke:#000000;stroke-width:1;" x1="1667.9206" x2="1671.9" y1="219.7794" y2="212.8394"/><line style="stroke:#000000;stroke-width:1;" x1="1594.7194" x2="1595.945" y1="347.4593" y2="357.3839"/><line style="stroke:#000000;stroke-width:1;" x1="1594.7194" x2="1585.535" y1="347.4593" y2="351.4148"/><line style="stroke:#000000;stroke-width:1;" x1="1594.7194" x2="1590.74" y1="347.4593" y2="354.3994"/><ellipse cx="1597.704" cy="342.2543" fill="none" rx="4" ry="4" style="stroke:#000000;stroke-width:1;"/><text fill="#000000" font-family="Verdana" font-size="13" lengthAdjust="spacing" textLength="43.272" x="1644.92" y="272.0163">role_id</text></g><!--link users to modelHasPermissions--><g class="link" data-entity-1="users" data-entity-2="modelHasPermissions" data-source-line="126" data-uid="lnk20" id="link_users_modelHasPermissions"><path codeLine="126" d="M886.6541,185.4244 C937.0841,205.8644 991.25,229.8594 1043.92,258.9494 C1095.03,287.1894 1134.6684,313.8145 1175.8584,343.8045" fill="none" id="users-modelHasPermissions" style="stroke:#000000;stroke-width:1;"/><line style="stroke:#000000;stroke-width:1;" x1="881.4445" x2="884.4496" y1="187.629" y2="180.2148"/><line style="stroke:#000000;stroke-width:1;" x1="884.2249" x2="887.2299" y1="188.7559" y2="181.3417"/><line style="stroke:#000000;stroke-width:1;" x1="886.6541" x2="879.24" y1="185.4244" y2="182.4194"/><line style="stroke:#000000;stroke-width:1;" x1="1183.9426" x2="1193.9416" y1="349.6905" y2="349.5488"/><line style="stroke:#000000;stroke-width:1;" x1="1183.9426" x2="1186.8784" y1="349.6905" y2="359.2499"/><line style="stroke:#000000;stroke-width:1;" x1="1183.9426" x2="1190.41" y1="349.6905" y2="354.3994"/><ellipse cx="1179.0921" cy="346.1589" fill="none" rx="4" ry="4" style="stroke:#000000;stroke-width:1;"/><text fill="#000000" font-family="Verdana" font-size="13" lengthAdjust="spacing" textLength="58.8428" x="1068.92" y="272.0163">model_id</text></g><!--link permissions to modelHasPermissions--><g class="link" data-entity-1="permissions" data-entity-2="modelHasPermissions" data-source-line="127" data-uid="lnk21" id="link_permissions_modelHasPermissions"><path codeLine="127" d="M1370.9636,219.699 C1344.4336,263.909 1323.7637,298.3662 1299.3937,338.9662" fill="none" id="permissions-modelHasPermissions" style="stroke:#000000;stroke-width:1;"/><line style="stroke:#000000;stroke-width:1;" x1="1369.592" x2="1376.4516" y1="214.211" y2="218.3274"/><line style="stroke:#000000;stroke-width:1;" x1="1368.0483" x2="1374.908" y1="216.7834" y2="220.8998"/><line style="stroke:#000000;stroke-width:1;" x1="1370.9636" x2="1375.08" y1="219.699" y2="212.8394"/><line style="stroke:#000000;stroke-width:1;" x1="1294.2472" x2="1295.2744" y1="347.5402" y2="357.4873"/><line style="stroke:#000000;stroke-width:1;" x1="1294.2472" x2="1284.9856" y1="347.5402" y2="351.3115"/><line style="stroke:#000000;stroke-width:1;" x1="1294.2472" x2="1290.13" y1="347.5402" y2="354.3994"/><ellipse cx="1297.3351" cy="342.3958" fill="none" rx="4" ry="4" style="stroke:#000000;stroke-width:1;"/><text fill="#000000" font-family="Verdana" font-size="13" lengthAdjust="spacing" textLength="89.5845" x="1346.92" y="272.0163">permission_id</text></g><!--link roles to roleHasPermissions--><g class="link" data-entity-1="roles" data-entity-2="roleHasPermissions" data-source-line="129" data-uid="lnk22" id="link_roles_roleHasPermissions"><path codeLine="129" d="M1754.4782,219.757 C1781.9182,266.997 1804.6178,306.0654 1828.3678,346.9454" fill="none" id="roles-roleHasPermissions" style="stroke:#000000;stroke-width:1;"/><line style="stroke:#000000;stroke-width:1;" x1="1749.0103" x2="1755.9279" y1="218.3073" y2="214.2891"/><line style="stroke:#000000;stroke-width:1;" x1="1750.5171" x2="1757.4348" y1="220.9014" y2="216.8832"/><line style="stroke:#000000;stroke-width:1;" x1="1754.4782" x2="1750.46" y1="219.757" y2="212.8394"/><line style="stroke:#000000;stroke-width:1;" x1="1833.3912" x2="1842.598" y1="355.592" y2="359.4953"/><line style="stroke:#000000;stroke-width:1;" x1="1833.3912" x2="1832.222" y1="355.592" y2="365.5234"/><line style="stroke:#000000;stroke-width:1;" x1="1833.3912" x2="1837.41" y1="355.592" y2="362.5094"/><ellipse cx="1830.3772" cy="350.404" fill="none" rx="4" ry="4" style="stroke:#000000;stroke-width:1;"/><text fill="#000000" font-family="Verdana" font-size="13" lengthAdjust="spacing" textLength="43.272" x="1787.92" y="272.0163">role_id</text></g><!--link permissions to roleHasPermissions--><g class="link" data-entity-1="permissions" data-entity-2="roleHasPermissions" data-source-line="130" data-uid="lnk23" id="link_permissions_roleHasPermissions"><path codeLine="130" d="M1469.5834,219.0245 C1489.5034,242.3645 1509.23,260.4094 1536.92,275.9494 C1596.2,309.2294 1623.24,282.1294 1686.92,305.9494 C1725.64,320.4394 1750.5861,333.3135 1782.8061,353.2635" fill="none" id="permissions-roleHasPermissions" style="stroke:#000000;stroke-width:1;"/><line style="stroke:#000000;stroke-width:1;" x1="1463.9442" x2="1470.0293" y1="218.5786" y2="213.3852"/><line style="stroke:#000000;stroke-width:1;" x1="1465.8917" x2="1471.9768" y1="220.8605" y2="215.6671"/><line style="stroke:#000000;stroke-width:1;" x1="1469.5834" x2="1464.39" y1="219.0245" y2="212.9394"/><line style="stroke:#000000;stroke-width:1;" x1="1791.3083" x2="1801.2686" y1="358.5279" y2="357.6381"/><line style="stroke:#000000;stroke-width:1;" x1="1791.3083" x2="1794.9514" y1="358.5279" y2="367.8407"/><line style="stroke:#000000;stroke-width:1;" x1="1791.3083" x2="1798.11" y1="358.5279" y2="362.7394"/><ellipse cx="1786.207" cy="355.3693" fill="none" rx="4" ry="4" style="stroke:#000000;stroke-width:1;"/><text fill="#000000" font-family="Verdana" font-size="13" lengthAdjust="spacing" textLength="89.5845" x="1537.92" y="272.0163">permission_id</text></g><!--link users to notifications--><g class="link" data-entity-1="users" data-entity-2="notifications" data-source-line="132" data-uid="lnk24" id="link_users_notifications"><path codeLine="132" d="M672.6954,159.2312 C571.8854,174.9412 420.66,204.8494 291.92,258.9494 C256.21,273.9594 235.5451,286.3992 206.1051,310.5992" fill="none" id="users-notifications" style="stroke:#000000;stroke-width:1;"/><line style="stroke:#000000;stroke-width:1;" x1="676.0318" x2="677.2636" y1="154.663" y2="162.5676"/><line style="stroke:#000000;stroke-width:1;" x1="673.0676" x2="674.2994" y1="155.1249" y2="163.0295"/><line style="stroke:#000000;stroke-width:1;" x1="672.6954" x2="680.6" y1="159.2312" y2="157.9994"/><line style="stroke:#000000;stroke-width:1;" x1="198.38" x2="196.01" y1="316.9493" y2="326.6644"/><line style="stroke:#000000;stroke-width:1;" x1="198.38" x2="188.39" y1="316.9493" y2="317.3943"/><line style="stroke:#000000;stroke-width:1;" x1="198.38" x2="192.2" y1="316.9493" y2="322.0294"/><ellipse cx="203.0151" cy="313.1393" fill="none" rx="4" ry="4" style="stroke:#000000;stroke-width:1;"/><text fill="#000000" font-family="Verdana" font-size="13" lengthAdjust="spacing" textLength="79.2822" x="292.92" y="272.0163">notifiable_id</text></g><!--link users to jobs--><g class="link" data-entity-1="users" data-entity-2="jobs" data-source-line="133" data-uid="lnk25" id="link_users_jobs"><path codeLine="133" d="M672.7376,151.9677 C587.7076,162.2277 474.76,188.2694 395.92,258.9494 C377.31,275.6394 370.845,282.1228 361.565,305.1628" fill="none" id="users-jobs" style="stroke:#000000;stroke-width:1;"/><line style="stroke:#000000;stroke-width:1;" x1="676.2296" x2="677.188" y1="147.5174" y2="155.4597"/><line style="stroke:#000000;stroke-width:1;" x1="673.2512" x2="674.2096" y1="147.8767" y2="155.8191"/><line style="stroke:#000000;stroke-width:1;" x1="672.7376" x2="680.68" y1="151.9677" y2="151.0094"/><line style="stroke:#000000;stroke-width:1;" x1="357.8289" x2="360.4055" y1="314.4387" y2="324.101"/><line style="stroke:#000000;stroke-width:1;" x1="357.8289" x2="349.2745" y1="314.4387" y2="319.6177"/><line style="stroke:#000000;stroke-width:1;" x1="357.8289" x2="354.84" y1="314.4387" y2="321.8594"/><ellipse cx="360.0706" cy="308.8732" fill="none" rx="4" ry="4" style="stroke:#000000;stroke-width:1;"/><text fill="#000000" font-family="Verdana" font-size="13" lengthAdjust="spacing" textLength="79.7012" x="396.92" y="272.0163">queued jobs</text></g><!--SRC=[nLRTJjim5BxFKtZbejiq9WQ2iGgu60En8H2gnDKqLKvpKWoEdSKEh09kzm1xn3t9ZksqjLENbVLYkMZzy_duEr_EJpJJ7CWP4umSzi_8Hpgy0P6HTN9SSqwE-f-Iv8M-WW98oIaJYRfXegGLBGW8pVIOt2V4dXfLiXRPeUIosjkxL50T790rsCstuKCCSSWP6h2OhNmppw8OMHIrO4EgcHG6ckVv5cp4eCUIStbtMLhK5cpdsp5KNt9mTc0ZtOmXBg0gc5BJ-o05YE7EfMQvnmmsylSvZI6_oDIQUfVlEYLabK5bDydQpivEyfWatVtMGuwCk0mKsOy_ITB8twbHQjKXL14x8bFnpOjvpJBI8oaRCQ79rulJRxWcABxC7b6wOcA4SoWeu_v2IPMwGvR-MeKHKAHG3RJ4-F1tXXLG3Tc0QbpLh02bQL7YHbrciOt76VMXZG57lXaJBpB-tO4hAG84tgnhXIiWwk9bznpkkc-w9rBZxsT1XvhT0WulAgbA6EhkApo26h2HGFfQUWIEJydldx-SqczPPjXmglHWw4Vgl1IhQEHRRgGAbiXydYmIpcay27OQZnhv6v_qk8IfMaFAEQfZLSR_0a2ZgbOaGnvnvi-GD-z6QZ12Q_YXFSVJyTCYhY1GRZD_K9TE73V56GcAmigI6BPHcEz6LeDZkbYHp8LcAh4KKR6QwnNQS5xR4PaMk6KpPrJJAXkqLrTWL4xBf-FbpKchkFutZeNCW0-kg1hCzBDh9rJrvtLqS8-egOQu7Gq6Qx491dUmIQM6U9H6MxG9cOkdnOiHcvcAqlDkMewaTJJ6qMpydUApwImXhCTEU4tOqGfMo5oRNXHpeV-aCKFJa4ouqJw3OKTnVgsaiFsIPalt0S-bQvawJyo0JBuU5l7-NaCDOUiUSqaDa4inQaeErHgAKfiYX6TX19KbY7NhDfP1z1OBlNNn6Vpdls3wm9lNiF0JndsmF3oihylxwGT0ZtIytjj99kiJMDZy47rbKeQASQTbRmuuQqPpLcTTOx710DEqWqxBYR2Ez2PPRe2kH2_2DO6_o9wVPu5Lly0-VIR8HRmdu1D9PvzKv9RuYVObWJDXSlOc-TkaMKjj6_-8iI6UsMdd3m00]--></g></svg>